<mxfile modified="2023-01-30T04:51:02.983Z" host="app.diagrams.net" agent="5.0 (Macintosh; Intel Mac OS X 10_15_7) AppleWebKit/537.36 (KHTML, like Gecko) Chrome/109.0.0.0 Safari/537.36" etag="32FnsXGk4X-RW9Cy2We8" version="20.8.13" type="github">
  <diagram id="Ht1M8jgEwFfnCIfOTk4-" name="Page-1">
    <mxGraphModel dx="2074" dy="1099" grid="1" gridSize="10" guides="1" tooltips="1" connect="1" arrows="1" fold="1" page="1" pageScale="1" pageWidth="1169" pageHeight="827" math="0" shadow="0">
      <root>
        <mxCell id="0" />
        <mxCell id="1" parent="0" />
        <mxCell id="ATrKov0P9gWtL0Q1Q7vu-11" value="" style="rounded=0;whiteSpace=wrap;html=1;fontFamily=Helvetica;fontStyle=0" parent="1" vertex="1">
          <mxGeometry x="230" y="30" width="670" height="460" as="geometry" />
        </mxCell>
        <mxCell id="ATrKov0P9gWtL0Q1Q7vu-27" value="" style="shape=cylinder3;whiteSpace=wrap;html=1;boundedLbl=1;backgroundOutline=1;size=15;fontFamily=Helvetica;" parent="1" vertex="1">
          <mxGeometry x="940" y="213.03" width="130" height="160" as="geometry" />
        </mxCell>
        <mxCell id="ATrKov0P9gWtL0Q1Q7vu-10" value="" style="rounded=1;whiteSpace=wrap;html=1;fontFamily=Helvetica;" parent="1" vertex="1">
          <mxGeometry x="260" y="187.04" width="240" height="232.96" as="geometry" />
        </mxCell>
        <mxCell id="UEzPUAAOIrF-is8g5C7q-137" value="" style="edgeStyle=orthogonalEdgeStyle;rounded=0;orthogonalLoop=1;jettySize=auto;html=1;startArrow=none;startFill=0;endArrow=open;endFill=0;strokeWidth=2;strokeColor=#808080;" parent="1" edge="1">
          <mxGeometry relative="1" as="geometry">
            <mxPoint x="878.5" y="162.5" as="sourcePoint" />
          </mxGeometry>
        </mxCell>
        <mxCell id="UEzPUAAOIrF-is8g5C7q-109" value="data lake CLI" style="outlineConnect=0;gradientColor=none;fontColor=#545B64;strokeColor=none;fillColor=#879196;dashed=0;verticalLabelPosition=bottom;verticalAlign=top;align=center;html=1;fontSize=12;fontStyle=0;aspect=fixed;shape=mxgraph.aws4.illustration_desktop;pointerEvents=1;labelBackgroundColor=#ffffff;" parent="1" vertex="1">
          <mxGeometry x="60" y="247.53" width="100" height="91" as="geometry" />
        </mxCell>
        <mxCell id="ATrKov0P9gWtL0Q1Q7vu-5" value="AWS EC2" style="text;html=1;align=center;verticalAlign=middle;resizable=0;points=[];autosize=1;strokeColor=none;fillColor=none;fontFamily=Helvetica;" parent="1" vertex="1">
          <mxGeometry x="270" y="30" width="80" height="30" as="geometry" />
        </mxCell>
        <mxCell id="ATrKov0P9gWtL0Q1Q7vu-9" value="" style="edgeStyle=orthogonalEdgeStyle;html=1;endArrow=block;elbow=vertical;startArrow=none;endFill=1;strokeColor=#545B64;rounded=0;fontFamily=Helvetica;" parent="1" edge="1">
          <mxGeometry width="100" relative="1" as="geometry">
            <mxPoint x="160" y="292.53" as="sourcePoint" />
            <mxPoint x="260" y="292.53" as="targetPoint" />
          </mxGeometry>
        </mxCell>
        <mxCell id="ATrKov0P9gWtL0Q1Q7vu-1" value="" style="sketch=0;points=[[0,0,0],[0.25,0,0],[0.5,0,0],[0.75,0,0],[1,0,0],[0,1,0],[0.25,1,0],[0.5,1,0],[0.75,1,0],[1,1,0],[0,0.25,0],[0,0.5,0],[0,0.75,0],[1,0.25,0],[1,0.5,0],[1,0.75,0]];outlineConnect=0;fontColor=#232F3E;gradientColor=#F78E04;gradientDirection=north;fillColor=#D05C17;strokeColor=#ffffff;dashed=0;verticalLabelPosition=bottom;verticalAlign=top;align=center;html=1;fontSize=12;fontStyle=0;aspect=fixed;shape=mxgraph.aws4.resourceIcon;resIcon=mxgraph.aws4.ec2;fontFamily=Helvetica;" parent="1" vertex="1">
          <mxGeometry x="192" y="10" width="78" height="78" as="geometry" />
        </mxCell>
        <mxCell id="ATrKov0P9gWtL0Q1Q7vu-12" value="" style="rounded=1;whiteSpace=wrap;html=1;fontFamily=Helvetica;" parent="1" vertex="1">
          <mxGeometry x="590" y="123.77" width="230" height="256.23" as="geometry" />
        </mxCell>
        <mxCell id="ATrKov0P9gWtL0Q1Q7vu-13" value="" style="shape=image;imageAspect=0;aspect=fixed;verticalLabelPosition=bottom;verticalAlign=top;fontFamily=Helvetica;image=https://images.vocus.cc/311f57c5-e9a2-458c-8813-5d4832f9264a.png;clipPath=inset(4.32% 25% 3.7% 25%);" parent="1" vertex="1">
          <mxGeometry x="335" y="241.47999999999996" width="90" height="89.4" as="geometry" />
        </mxCell>
        <mxCell id="ATrKov0P9gWtL0Q1Q7vu-15" value="Reverse Proxy /&amp;nbsp;&lt;br&gt;SSL" style="text;html=1;align=center;verticalAlign=middle;resizable=0;points=[];autosize=1;strokeColor=none;fillColor=none;fontFamily=Helvetica;" parent="1" vertex="1">
          <mxGeometry x="325" y="350" width="110" height="40" as="geometry" />
        </mxCell>
        <mxCell id="ATrKov0P9gWtL0Q1Q7vu-18" value="" style="shape=image;imageAspect=0;aspect=fixed;verticalLabelPosition=bottom;verticalAlign=top;fontFamily=Helvetica;image=https://developers.redhat.com/sites/default/files/styles/article_feature/public/blog/2014/05/homepage-docker-logo.png?itok=zx0e-vcP;" parent="1" vertex="1">
          <mxGeometry x="260" y="103.26999999999997" width="101.3" height="83.77" as="geometry" />
        </mxCell>
        <mxCell id="ATrKov0P9gWtL0Q1Q7vu-19" value="" style="shape=image;imageAspect=0;aspect=fixed;verticalLabelPosition=bottom;verticalAlign=top;fontFamily=Helvetica;image=https://developers.redhat.com/sites/default/files/styles/article_feature/public/blog/2014/05/homepage-docker-logo.png?itok=zx0e-vcP;" parent="1" vertex="1">
          <mxGeometry x="585" y="40.000000000000014" width="101.3" height="83.77" as="geometry" />
        </mxCell>
        <mxCell id="ATrKov0P9gWtL0Q1Q7vu-21" value="" style="edgeStyle=orthogonalEdgeStyle;html=1;endArrow=block;elbow=vertical;startArrow=none;endFill=1;strokeColor=#545B64;rounded=0;fontFamily=Helvetica;entryX=0;entryY=0.5;entryDx=0;entryDy=0;" parent="1" edge="1" target="ATrKov0P9gWtL0Q1Q7vu-12">
          <mxGeometry width="100" relative="1" as="geometry">
            <mxPoint x="500" y="292.53" as="sourcePoint" />
            <mxPoint x="600" y="292.53" as="targetPoint" />
          </mxGeometry>
        </mxCell>
        <mxCell id="ATrKov0P9gWtL0Q1Q7vu-22" value="docker container" style="text;html=1;align=center;verticalAlign=middle;resizable=0;points=[];autosize=1;strokeColor=none;fillColor=none;fontFamily=Helvetica;" parent="1" vertex="1">
          <mxGeometry x="270" y="193.76999999999998" width="110" height="30" as="geometry" />
        </mxCell>
        <mxCell id="ATrKov0P9gWtL0Q1Q7vu-23" value="docker container" style="text;html=1;align=center;verticalAlign=middle;resizable=0;points=[];autosize=1;strokeColor=none;fillColor=none;fontFamily=Helvetica;" parent="1" vertex="1">
          <mxGeometry x="610" y="240" width="110" height="30" as="geometry" />
        </mxCell>
        <mxCell id="ATrKov0P9gWtL0Q1Q7vu-24" value="" style="shape=image;imageAspect=0;aspect=fixed;verticalLabelPosition=bottom;verticalAlign=top;fontFamily=Helvetica;image=https://miro.medium.com/max/1400/1*HkM78Z1G5UKqQNCHwBHRfA.png;" parent="1" vertex="1">
          <mxGeometry x="600" y="159.99999999999994" width="210" height="148.21" as="geometry" />
        </mxCell>
        <mxCell id="ATrKov0P9gWtL0Q1Q7vu-32" value="" style="edgeStyle=orthogonalEdgeStyle;html=1;endArrow=block;elbow=vertical;startArrow=none;endFill=1;strokeColor=#545B64;rounded=0;fontFamily=Helvetica;" parent="1" edge="1">
          <mxGeometry width="100" relative="1" as="geometry">
            <mxPoint x="820" y="303.02" as="sourcePoint" />
            <mxPoint x="940" y="303.02" as="targetPoint" />
          </mxGeometry>
        </mxCell>
        <mxCell id="ATrKov0P9gWtL0Q1Q7vu-34" value="" style="shape=image;imageAspect=0;aspect=fixed;verticalLabelPosition=bottom;verticalAlign=top;fontFamily=Helvetica;image=https://g.foolcdn.com/editorial/images/635884/atlas_icon_blk_stackedlarge.png;clipPath=inset(22.22% 33.33% 22.22% 33.33%);" parent="1" vertex="1">
          <mxGeometry x="956.67" y="255.19" width="96.66" height="96.66" as="geometry" />
        </mxCell>
        <mxCell id="FomPd15EkLlDmHvs1HL_-1" value="" style="shape=image;imageAspect=0;aspect=fixed;verticalLabelPosition=bottom;verticalAlign=top;image=https://creativecoding.in/wp-content/uploads/2020/03/1502523744899566.jpg;clipPath=inset(3.27% 3.67% 2.34% 2.33%);" vertex="1" parent="1">
          <mxGeometry x="625" y="294.55" width="160" height="57.3" as="geometry" />
        </mxCell>
        <mxCell id="FomPd15EkLlDmHvs1HL_-2" value="" style="rounded=0;whiteSpace=wrap;html=1;" vertex="1" parent="1">
          <mxGeometry x="230" y="560" width="670" height="250" as="geometry" />
        </mxCell>
        <mxCell id="FomPd15EkLlDmHvs1HL_-3" value="" style="sketch=0;points=[[0,0,0],[0.25,0,0],[0.5,0,0],[0.75,0,0],[1,0,0],[0,1,0],[0.25,1,0],[0.5,1,0],[0.75,1,0],[1,1,0],[0,0.25,0],[0,0.5,0],[0,0.75,0],[1,0.25,0],[1,0.5,0],[1,0.75,0]];outlineConnect=0;fontColor=#232F3E;gradientColor=#F78E04;gradientDirection=north;fillColor=#D05C17;strokeColor=#ffffff;dashed=0;verticalLabelPosition=bottom;verticalAlign=top;align=center;html=1;fontSize=12;fontStyle=0;aspect=fixed;shape=mxgraph.aws4.resourceIcon;resIcon=mxgraph.aws4.ec2;fontFamily=Helvetica;" vertex="1" parent="1">
          <mxGeometry x="200" y="540" width="78" height="78" as="geometry" />
        </mxCell>
        <mxCell id="FomPd15EkLlDmHvs1HL_-4" value="AWS EC2" style="text;html=1;align=center;verticalAlign=middle;resizable=0;points=[];autosize=1;strokeColor=none;fillColor=none;fontFamily=Helvetica;" vertex="1" parent="1">
          <mxGeometry x="230" y="618" width="80" height="30" as="geometry" />
        </mxCell>
        <mxCell id="FomPd15EkLlDmHvs1HL_-5" value="" style="rounded=1;whiteSpace=wrap;html=1;fontFamily=Helvetica;" vertex="1" parent="1">
          <mxGeometry x="340" y="590" width="240" height="198.39" as="geometry" />
        </mxCell>
        <mxCell id="FomPd15EkLlDmHvs1HL_-6" value="" style="shape=image;imageAspect=0;aspect=fixed;verticalLabelPosition=bottom;verticalAlign=top;fontFamily=Helvetica;image=https://images.vocus.cc/311f57c5-e9a2-458c-8813-5d4832f9264a.png;clipPath=inset(4.32% 25% 3.7% 25%);" vertex="1" parent="1">
          <mxGeometry x="490" y="637.6" width="65" height="64.57" as="geometry" />
        </mxCell>
        <mxCell id="FomPd15EkLlDmHvs1HL_-7" value="Reverse Proxy /&amp;nbsp;&lt;br&gt;SSL" style="text;html=1;align=center;verticalAlign=middle;resizable=0;points=[];autosize=1;strokeColor=none;fillColor=none;fontFamily=Helvetica;" vertex="1" parent="1">
          <mxGeometry x="467.50000000000006" y="720" width="110" height="40" as="geometry" />
        </mxCell>
        <mxCell id="FomPd15EkLlDmHvs1HL_-9" value="" style="shape=image;imageAspect=0;aspect=fixed;verticalLabelPosition=bottom;verticalAlign=top;fontFamily=Helvetica;image=https://developers.redhat.com/sites/default/files/styles/article_feature/public/blog/2014/05/homepage-docker-logo.png?itok=zx0e-vcP;" vertex="1" parent="1">
          <mxGeometry x="355.76" y="593.82" width="78.47" height="64.89" as="geometry" />
        </mxCell>
        <mxCell id="FomPd15EkLlDmHvs1HL_-10" value="docker container" style="text;html=1;align=center;verticalAlign=middle;resizable=0;points=[];autosize=1;strokeColor=none;fillColor=none;fontFamily=Helvetica;" vertex="1" parent="1">
          <mxGeometry x="600" y="123.76999999999998" width="110" height="30" as="geometry" />
        </mxCell>
        <mxCell id="FomPd15EkLlDmHvs1HL_-12" value="docker container" style="text;html=1;align=center;verticalAlign=middle;resizable=0;points=[];autosize=1;strokeColor=none;fillColor=none;fontFamily=Helvetica;" vertex="1" parent="1">
          <mxGeometry x="340" y="654.89" width="110" height="30" as="geometry" />
        </mxCell>
        <mxCell id="FomPd15EkLlDmHvs1HL_-14" value="" style="rounded=1;whiteSpace=wrap;html=1;fontFamily=Helvetica;" vertex="1" parent="1">
          <mxGeometry x="650" y="593.82" width="180" height="194.57" as="geometry" />
        </mxCell>
        <mxCell id="FomPd15EkLlDmHvs1HL_-16" value="" style="shape=image;imageAspect=0;aspect=fixed;verticalLabelPosition=bottom;verticalAlign=top;image=https://mlohr.com/wp-content/uploads/2013/05/peerjs_logo.png;" vertex="1" parent="1">
          <mxGeometry x="678" y="700" width="124" height="37.4" as="geometry" />
        </mxCell>
        <mxCell id="FomPd15EkLlDmHvs1HL_-17" value="" style="shape=image;imageAspect=0;aspect=fixed;verticalLabelPosition=bottom;verticalAlign=top;fontFamily=Helvetica;image=https://developers.redhat.com/sites/default/files/styles/article_feature/public/blog/2014/05/homepage-docker-logo.png?itok=zx0e-vcP;" vertex="1" parent="1">
          <mxGeometry x="661.51" y="593.82" width="86.98" height="71.93" as="geometry" />
        </mxCell>
        <mxCell id="FomPd15EkLlDmHvs1HL_-18" value="docker container" style="text;html=1;align=center;verticalAlign=middle;resizable=0;points=[];autosize=1;strokeColor=none;fillColor=none;fontFamily=Helvetica;" vertex="1" parent="1">
          <mxGeometry x="650" y="661.93" width="110" height="30" as="geometry" />
        </mxCell>
        <mxCell id="FomPd15EkLlDmHvs1HL_-23" value="" style="endArrow=classic;html=1;rounded=0;exitX=1;exitY=0.5;exitDx=0;exitDy=0;" edge="1" parent="1" source="FomPd15EkLlDmHvs1HL_-5">
          <mxGeometry width="50" height="50" relative="1" as="geometry">
            <mxPoint x="560" y="620" as="sourcePoint" />
            <mxPoint x="650" y="689" as="targetPoint" />
          </mxGeometry>
        </mxCell>
        <mxCell id="FomPd15EkLlDmHvs1HL_-31" value="" style="endArrow=classic;startArrow=classic;html=1;rounded=0;entryX=0.474;entryY=0.998;entryDx=0;entryDy=0;entryPerimeter=0;exitX=0.475;exitY=0.003;exitDx=0;exitDy=0;exitPerimeter=0;" edge="1" parent="1" source="FomPd15EkLlDmHvs1HL_-5" target="ATrKov0P9gWtL0Q1Q7vu-12">
          <mxGeometry width="50" height="50" relative="1" as="geometry">
            <mxPoint x="560" y="620" as="sourcePoint" />
            <mxPoint x="610" y="570" as="targetPoint" />
            <Array as="points">
              <mxPoint x="454" y="520" />
              <mxPoint x="700" y="520" />
            </Array>
          </mxGeometry>
        </mxCell>
        <mxCell id="FomPd15EkLlDmHvs1HL_-28" value="" style="rounded=0;whiteSpace=wrap;html=1;" vertex="1" parent="1">
          <mxGeometry x="660" y="400" width="90" height="74" as="geometry" />
        </mxCell>
        <mxCell id="FomPd15EkLlDmHvs1HL_-8" value="" style="shape=image;imageAspect=0;aspect=fixed;verticalLabelPosition=bottom;verticalAlign=top;image=https://blog.wildix.com/wp-content/uploads/2016/11/webrtc-logo-vert-retro-255x305-1.png;" vertex="1" parent="1">
          <mxGeometry x="676.74" y="403.19" width="56.52" height="67.61" as="geometry" />
        </mxCell>
      </root>
    </mxGraphModel>
  </diagram>
</mxfile>
